<?xml version="1.0" encoding="utf-8"?>
<!-- Generator: Adobe Illustrator 24.1.0, SVG Export Plug-In . SVG Version: 6.00 Build 0)  -->
<svg version="1.1" xmlns="http://www.w3.org/2000/svg" xmlns:xlink="http://www.w3.org/1999/xlink" x="0px" y="0px"
	 viewBox="0 0 500 500" style="enable-background:new 0 0 500 500;" xml:space="preserve">
<style type="text/css">
	.st0{fill:#5DBCC2;}
	.st1{fill:#FFFFFF;}
	.st2{fill:none;stroke:#FFFFFF;stroke-width:18;stroke-miterlimit:10;}
</style>
<g id="Layer_1">
	<g id="Layer_1_1_">
		<circle class="st0" cx="250" cy="250" r="249.07"/>
	</g>
</g>
<g id="Layer_4">
	<path class="st1" d="M167.23,143.12h159.19V250c0,0,3.41,65.08-77.88,65.08c-83.4,0-81.31-65.08-81.31-65.08V143.12z"/>
	<path class="st1" d="M179.89,377.18h133.43c0,0-6.27-36.77-64.78-36.77S179.89,377.18,179.89,377.18z"/>
	<g id="Layer_7">
		<path class="st2" d="M319.27,194.86c0,0,27.33-12.46,38.09-0.22c11.86,13.49,9.25,42.5-44.04,73.76"/>
		<path class="st2" d="M177.6,194.86c0,0-27.33-12.46-38.09-0.22c-11.86,13.49-9.25,42.5,44.04,73.76"/>
	</g>
	<rect x="232.3" y="310.02" class="st1" width="31.93" height="43.82"/>
</g>
</svg>
